name rise45.9887peak57.8056fall74.9286.mot
datacolumns 19
datarows 30
range 10.40996000000000 10.45829700000000
endheader
time	ground_force1_vx	ground_force1_vy	ground_force1_vz	ground_force1_px	ground_force1_py	ground_force1_pz	ground_force2_vx	ground_force2_vy	ground_force2_vz	ground_force2_px	ground_force2_py	ground_force2_pz	ground_torque1_x	ground_torque1_y	ground_torque1_z	ground_torque2_x	ground_torque2_y	ground_torque2_z	
10.40996000000000	66.19946600000000	784.07919100000004	62.20359300000000	0.35931700000000	0.00000000000000	0.10913900000000	0.00000000000000	0.00000000000000	0.00000000000000	0.00000000000000	0.00000000000000	0.00000000000000	0.00000000000000	28.87286500000000	0.00000000000000	0.00000000000000	0.00000000000000	0.00000000000000	
10.41162600000000	65.55105700000000	786.25737600000002	62.16094900000000	0.35854900000000	0.00000000000000	0.10909000000000	0.00000000000000	0.00000000000000	0.00000000000000	0.00000000000000	0.00000000000000	0.00000000000000	0.00000000000000	28.84083700000000	0.00000000000000	0.00000000000000	0.00000000000000	0.00000000000000	
10.41329100000000	64.90265100000001	788.28106800000000	62.11152500000000	0.35781000000000	0.00000000000000	0.10904000000000	0.00000000000000	0.00000000000000	0.00000000000000	0.00000000000000	0.00000000000000	0.00000000000000	0.00000000000000	28.80724500000000	0.00000000000000	0.00000000000000	0.00000000000000	0.00000000000000	
10.41496300000000	64.25461600000000	790.14864699999998	62.05547700000000	0.35709900000000	0.00000000000000	0.10899100000000	0.00000000000000	0.00000000000000	0.00000000000000	0.00000000000000	0.00000000000000	0.00000000000000	0.00000000000000	28.77212300000000	0.00000000000000	0.00000000000000	0.00000000000000	0.00000000000000	
10.41663000000000	63.60724800000000	791.85874400000000	61.99291900000000	0.35641500000000	0.00000000000000	0.10894200000000	0.00000000000000	0.00000000000000	0.00000000000000	0.00000000000000	0.00000000000000	0.00000000000000	0.00000000000000	28.73547100000000	0.00000000000000	0.00000000000000	0.00000000000000	0.00000000000000	
10.41829200000000	62.96077900000000	793.41024900000002	61.92392300000000	0.35575400000000	0.00000000000000	0.10889200000000	0.00000000000000	0.00000000000000	0.00000000000000	0.00000000000000	0.00000000000000	0.00000000000000	0.00000000000000	28.69726200000000	0.00000000000000	0.00000000000000	0.00000000000000	0.00000000000000	
10.41996000000000	62.31537700000000	794.80232899999999	61.84852300000000	0.35511600000000	0.00000000000000	0.10884300000000	0.00000000000000	0.00000000000000	0.00000000000000	0.00000000000000	0.00000000000000	0.00000000000000	0.00000000000000	28.65744100000000	0.00000000000000	0.00000000000000	0.00000000000000	0.00000000000000	
10.42163000000000	61.67115500000000	796.03443000000004	61.76671900000000	0.35449900000000	0.00000000000000	0.10879400000000	0.00000000000000	0.00000000000000	0.00000000000000	0.00000000000000	0.00000000000000	0.00000000000000	0.00000000000000	28.61593000000000	0.00000000000000	0.00000000000000	0.00000000000000	0.00000000000000	
10.42329900000000	61.02817300000000	797.10629800000004	61.67847900000000	0.35390000000000	0.00000000000000	0.10874600000000	0.00000000000000	0.00000000000000	0.00000000000000	0.00000000000000	0.00000000000000	0.00000000000000	0.00000000000000	28.57262500000000	0.00000000000000	0.00000000000000	0.00000000000000	0.00000000000000	
10.42496600000000	60.38644200000000	798.01797799999997	61.58374200000000	0.35331800000000	0.00000000000000	0.10869800000000	0.00000000000000	0.00000000000000	0.00000000000000	0.00000000000000	0.00000000000000	0.00000000000000	0.00000000000000	28.52740500000000	0.00000000000000	0.00000000000000	0.00000000000000	0.00000000000000	
10.42662900000000	59.74593100000000	798.76982499999997	61.48242600000000	0.35274900000000	0.00000000000000	0.10865100000000	0.00000000000000	0.00000000000000	0.00000000000000	0.00000000000000	0.00000000000000	0.00000000000000	0.00000000000000	28.48012900000000	0.00000000000000	0.00000000000000	0.00000000000000	0.00000000000000	
10.42829600000000	59.10656800000000	799.36250800000005	61.37442700000000	0.35219300000000	0.00000000000000	0.10860400000000	0.00000000000000	0.00000000000000	0.00000000000000	0.00000000000000	0.00000000000000	0.00000000000000	0.00000000000000	28.43064300000000	0.00000000000000	0.00000000000000	0.00000000000000	0.00000000000000	
10.42996100000000	58.46825100000000	799.79701599999999	61.25962200000000	0.35164600000000	0.00000000000000	0.10855800000000	0.00000000000000	0.00000000000000	0.00000000000000	0.00000000000000	0.00000000000000	0.00000000000000	0.00000000000000	28.37878000000000	0.00000000000000	0.00000000000000	0.00000000000000	0.00000000000000	
10.43163200000000	57.83084800000000	800.07465500000001	61.13788000000000	0.35110600000000	0.00000000000000	0.10851200000000	0.00000000000000	0.00000000000000	0.00000000000000	0.00000000000000	0.00000000000000	0.00000000000000	0.00000000000000	28.32436000000000	0.00000000000000	0.00000000000000	0.00000000000000	0.00000000000000	
10.43329500000000	57.19420400000000	800.19705599999998	61.00905700000000	0.35057100000000	0.00000000000000	0.10846800000000	0.00000000000000	0.00000000000000	0.00000000000000	0.00000000000000	0.00000000000000	0.00000000000000	0.00000000000000	28.26720000000000	0.00000000000000	0.00000000000000	0.00000000000000	0.00000000000000	
10.43496600000000	56.55814200000000	800.16616599999998	60.87300600000000	0.35003900000000	0.00000000000000	0.10842400000000	0.00000000000000	0.00000000000000	0.00000000000000	0.00000000000000	0.00000000000000	0.00000000000000	0.00000000000000	28.20710900000000	0.00000000000000	0.00000000000000	0.00000000000000	0.00000000000000	
10.43662800000000	55.92247700000000	799.98425299999997	60.72957700000000	0.34950600000000	0.00000000000000	0.10838200000000	0.00000000000000	0.00000000000000	0.00000000000000	0.00000000000000	0.00000000000000	0.00000000000000	0.00000000000000	28.14389400000000	0.00000000000000	0.00000000000000	0.00000000000000	0.00000000000000	
10.43829700000000	55.28701000000000	799.65389600000003	60.57862400000000	0.34897100000000	0.00000000000000	0.10834000000000	0.00000000000000	0.00000000000000	0.00000000000000	0.00000000000000	0.00000000000000	0.00000000000000	0.00000000000000	28.07736400000000	0.00000000000000	0.00000000000000	0.00000000000000	0.00000000000000	
10.43996500000000	54.65153800000000	799.17798700000003	60.42000500000000	0.34843100000000	0.00000000000000	0.10830000000000	0.00000000000000	0.00000000000000	0.00000000000000	0.00000000000000	0.00000000000000	0.00000000000000	0.00000000000000	28.00732700000000	0.00000000000000	0.00000000000000	0.00000000000000	0.00000000000000	
10.44162700000000	54.01586000000000	798.55971499999998	60.25358600000000	0.34788300000000	0.00000000000000	0.10826100000000	0.00000000000000	0.00000000000000	0.00000000000000	0.00000000000000	0.00000000000000	0.00000000000000	0.00000000000000	27.93360000000000	0.00000000000000	0.00000000000000	0.00000000000000	0.00000000000000	
10.44329900000000	53.37977700000000	797.80256799999995	60.07924700000000	0.34732500000000	0.00000000000000	0.10822300000000	0.00000000000000	0.00000000000000	0.00000000000000	0.00000000000000	0.00000000000000	0.00000000000000	0.00000000000000	27.85600300000000	0.00000000000000	0.00000000000000	0.00000000000000	0.00000000000000	
10.44496100000000	52.74309800000000	796.91031699999996	59.89688300000000	0.34675600000000	0.00000000000000	0.10818700000000	0.00000000000000	0.00000000000000	0.00000000000000	0.00000000000000	0.00000000000000	0.00000000000000	0.00000000000000	27.77436700000000	0.00000000000000	0.00000000000000	0.00000000000000	0.00000000000000	
10.44662400000000	52.10564400000000	795.88700800000004	59.70640400000000	0.34617100000000	0.00000000000000	0.10815200000000	0.00000000000000	0.00000000000000	0.00000000000000	0.00000000000000	0.00000000000000	0.00000000000000	0.00000000000000	27.68853300000000	0.00000000000000	0.00000000000000	0.00000000000000	0.00000000000000	
10.44829700000000	51.46725200000000	794.73694899999998	59.50774300000000	0.34557000000000	0.00000000000000	0.10811800000000	0.00000000000000	0.00000000000000	0.00000000000000	0.00000000000000	0.00000000000000	0.00000000000000	0.00000000000000	27.59835800000000	0.00000000000000	0.00000000000000	0.00000000000000	0.00000000000000	
10.44996000000000	50.82777500000000	793.46470099999999	59.30085400000000	0.34495000000000	0.00000000000000	0.10808700000000	0.00000000000000	0.00000000000000	0.00000000000000	0.00000000000000	0.00000000000000	0.00000000000000	0.00000000000000	27.50371000000000	0.00000000000000	0.00000000000000	0.00000000000000	0.00000000000000	
10.45163200000000	50.18709000000000	792.07506100000001	59.08571600000000	0.34430800000000	0.00000000000000	0.10805600000000	0.00000000000000	0.00000000000000	0.00000000000000	0.00000000000000	0.00000000000000	0.00000000000000	0.00000000000000	27.40447600000000	0.00000000000000	0.00000000000000	0.00000000000000	0.00000000000000	
10.45330000000000	49.54509600000000	790.57304799999997	58.86233600000000	0.34364300000000	0.00000000000000	0.10802800000000	0.00000000000000	0.00000000000000	0.00000000000000	0.00000000000000	0.00000000000000	0.00000000000000	0.00000000000000	27.30055900000000	0.00000000000000	0.00000000000000	0.00000000000000	0.00000000000000	
10.45497600000000	48.90171900000000	788.96388999999999	58.63074500000000	0.34295300000000	0.00000000000000	0.10800100000000	0.00000000000000	0.00000000000000	0.00000000000000	0.00000000000000	0.00000000000000	0.00000000000000	0.00000000000000	27.19188300000000	0.00000000000000	0.00000000000000	0.00000000000000	0.00000000000000	
10.45662500000000	48.25691500000000	787.25300400000003	58.39100700000000	0.34223500000000	0.00000000000000	0.10797700000000	0.00000000000000	0.00000000000000	0.00000000000000	0.00000000000000	0.00000000000000	0.00000000000000	0.00000000000000	27.07839100000000	0.00000000000000	0.00000000000000	0.00000000000000	0.00000000000000	
10.45829700000000	47.61066700000000	785.44598399999995	58.14321300000000	0.34148900000000	0.00000000000000	0.10795400000000	0.00000000000000	0.00000000000000	0.00000000000000	0.00000000000000	0.00000000000000	0.00000000000000	0.00000000000000	26.96004700000000	0.00000000000000	0.00000000000000	0.00000000000000	0.00000000000000	
